<svg width="35" height="20" viewBox="0 0 35 20" fill="none" xmlns="http://www.w3.org/2000/svg">
<rect y="0.000488281" width="35" height="20" rx="6" fill="#E4E4E9"/>
<path fill-rule="evenodd" clip-rule="evenodd" d="M9.56809 6.37951C9.27509 6.74081 8.80628 7.02577 8.33748 6.98506C8.27888 6.49655 8.5084 5.97751 8.77698 5.65692C9.06999 5.28545 9.58274 5.02084 9.99783 5.00049C10.0467 5.50935 9.85621 6.00804 9.56809 6.37951ZM9.99283 7.08173C9.57982 7.05696 9.20297 7.21116 8.89857 7.33571C8.70269 7.41586 8.53681 7.48373 8.41061 7.48373C8.26899 7.48373 8.09627 7.41223 7.90234 7.33195C7.64822 7.22676 7.3577 7.10649 7.05304 7.11226C6.35471 7.12244 5.70522 7.53462 5.34874 8.19105C4.61623 9.50392 5.15829 11.4478 5.86638 12.5164C6.2131 13.0456 6.62818 13.6257 7.17512 13.6054C7.41574 13.5959 7.58883 13.5194 7.76796 13.4402C7.97418 13.349 8.18842 13.2543 8.52293 13.2543C8.84585 13.2543 9.05071 13.3465 9.24737 13.4351C9.43436 13.5193 9.61393 13.6002 9.88051 13.5952C10.447 13.585 10.8035 13.066 11.1502 12.5368C11.5244 11.9688 11.6888 11.4144 11.7137 11.3303L11.7167 11.3206C11.7167 11.3206 11.7114 11.3177 11.7033 11.3139C11.5782 11.2542 10.6222 10.7981 10.613 9.57517C10.6038 8.54867 11.3713 8.02859 11.4921 7.94672C11.4995 7.94173 11.5044 7.93837 11.5067 7.93662C11.0183 7.1835 10.2565 7.10208 9.99283 7.08173ZM13.9143 13.5392V5.60602H16.771C18.2458 5.60602 19.2762 6.66446 19.2762 8.21141C19.2762 9.75836 18.2263 10.827 16.732 10.827H15.096V13.5392H13.9143ZM15.0958 6.64413H16.4583C17.4838 6.64413 18.0698 7.21406 18.0698 8.21652C18.0698 9.21898 17.4838 9.794 16.4534 9.794H15.0958V6.64413ZM23.1779 12.5877C22.8654 13.2085 22.1768 13.6003 21.4345 13.6003C20.3358 13.6003 19.5691 12.9184 19.5691 11.8905C19.5691 10.8728 20.3114 10.2876 21.6836 10.2011L23.1584 10.1095V9.67186C23.1584 9.0256 22.7531 8.67449 22.0303 8.67449C21.4345 8.67449 20.9999 8.99507 20.912 9.48358H19.8475C19.8816 8.45568 20.8095 7.70765 22.0645 7.70765C23.4172 7.70765 24.2962 8.4455 24.2962 9.59044V13.5392H23.2023V12.5877H23.1779ZM21.752 12.6589C21.1221 12.6589 20.7216 12.3434 20.7216 11.86C20.7216 11.3613 21.1074 11.0712 21.8448 11.0254L23.1584 10.9389V11.3867C23.1584 12.1297 22.5529 12.6589 21.752 12.6589ZM27.9246 13.8496C27.4509 15.2388 26.9088 15.6968 25.7563 15.6968C25.6684 15.6968 25.3754 15.6866 25.3071 15.6663V14.7147C25.3803 14.7249 25.561 14.7351 25.6538 14.7351C26.1763 14.7351 26.4693 14.5061 26.65 13.9107L26.7574 13.5596L24.7553 7.78397H25.9907L27.3825 12.4706H27.4069L28.7987 7.78397H30L27.9246 13.8496Z" fill="#8B8D98"/>
</svg>