<svg width="16" height="60" viewBox="0 0 16 22" fill="none" xmlns="http://www.w3.org/2000/svg">
<path d="M8 7.50049C6.71442 7.50049 5.45772 7.88171 4.3888 8.59594C3.31988 9.31016 2.48676 10.3253 1.99479 11.513C1.50282 12.7008 1.37409 14.0077 1.6249 15.2686C1.8757 16.5295 2.49477 17.6876 3.40381 18.5967C4.31285 19.5057 5.47104 20.1248 6.73192 20.3756C7.99279 20.6264 9.29973 20.4977 10.4874 20.0057C11.6752 19.5137 12.6903 18.6806 13.4046 17.6117C14.1188 16.5428 14.5 15.2861 14.5 14.0005C14.4982 12.2771 13.8128 10.6249 12.5942 9.4063C11.3756 8.18771 9.72335 7.50231 8 7.50049ZM7.75 10.5005C7.89834 10.5005 8.04334 10.5445 8.16668 10.6269C8.29002 10.7093 8.38615 10.8264 8.44291 10.9635C8.49968 11.1005 8.51453 11.2513 8.48559 11.3968C8.45665 11.5423 8.38522 11.6759 8.28033 11.7808C8.17544 11.8857 8.04181 11.9571 7.89632 11.9861C7.75083 12.015 7.60003 12.0002 7.46299 11.9434C7.32595 11.8866 7.20881 11.7905 7.1264 11.6672C7.04399 11.5438 7 11.3988 7 11.2505C7 11.0516 7.07902 10.8608 7.21967 10.7202C7.36032 10.5795 7.55109 10.5005 7.75 10.5005ZM8.5 17.5005C8.23479 17.5005 7.98043 17.3951 7.7929 17.2076C7.60536 17.0201 7.5 16.7657 7.5 16.5005V14.0005C7.36739 14.0005 7.24022 13.9478 7.14645 13.854C7.05268 13.7603 7 13.6331 7 13.5005C7 13.3679 7.05268 13.2407 7.14645 13.1469C7.24022 13.0532 7.36739 13.0005 7.5 13.0005C7.76522 13.0005 8.01957 13.1058 8.20711 13.2934C8.39465 13.4809 8.5 13.7353 8.5 14.0005V16.5005C8.63261 16.5005 8.75979 16.5532 8.85356 16.6469C8.94732 16.7407 9 16.8679 9 17.0005C9 17.1331 8.94732 17.2603 8.85356 17.354C8.75979 17.4478 8.63261 17.5005 8.5 17.5005Z" fill="black"/>
</svg>
