<svg width="23" height="22" viewBox="0 0 23 22" fill="none" xmlns="http://www.w3.org/2000/svg">
<path d="M18.375 6.87549H15.625V4.81299C15.625 3.71897 15.1904 2.66976 14.4168 1.89617C13.6432 1.12259 12.594 0.687988 11.5 0.687988C10.406 0.687988 9.35677 1.12259 8.58318 1.89617C7.8096 2.66976 7.375 3.71897 7.375 4.81299V6.87549H4.625C4.26033 6.87549 3.91059 7.02035 3.65273 7.27822C3.39487 7.53608 3.25 7.88582 3.25 8.25049V17.8755C3.25 18.2402 3.39487 18.5899 3.65273 18.8478C3.91059 19.1056 4.26033 19.2505 4.625 19.2505H18.375C18.7397 19.2505 19.0894 19.1056 19.3473 18.8478C19.6051 18.5899 19.75 18.2402 19.75 17.8755V8.25049C19.75 7.88582 19.6051 7.53608 19.3473 7.27822C19.0894 7.02035 18.7397 6.87549 18.375 6.87549ZM11.5 14.0942C11.296 14.0942 11.0967 14.0338 10.9271 13.9204C10.7575 13.8071 10.6253 13.6461 10.5472 13.4576C10.4692 13.2692 10.4488 13.0618 10.4886 12.8618C10.5284 12.6618 10.6266 12.478 10.7708 12.3338C10.915 12.1896 11.0988 12.0913 11.2988 12.0516C11.4989 12.0118 11.7062 12.0322 11.8946 12.1102C12.0831 12.1883 12.2441 12.3205 12.3575 12.4901C12.4708 12.6596 12.5312 12.859 12.5312 13.063C12.5312 13.3365 12.4226 13.5988 12.2292 13.7922C12.0358 13.9856 11.7735 14.0942 11.5 14.0942ZM14.25 6.87549H8.75V4.81299C8.75 4.08364 9.03973 3.38417 9.55546 2.86844C10.0712 2.35272 10.7707 2.06299 11.5 2.06299C12.2293 2.06299 12.9288 2.35272 13.4445 2.86844C13.9603 3.38417 14.25 4.08364 14.25 4.81299V6.87549Z" fill="#EDEEF0"/>
</svg>