<svg width="35" height="20" viewBox="0 0 35 20" fill="none" xmlns="http://www.w3.org/2000/svg">
<g clip-path="url(#clip0_1191_114)">
<rect y="0.000488281" width="35" height="20" rx="3.75" fill="white"/>
<path d="M25 3.75049H10C9.66848 3.75049 9.35054 3.88218 9.11612 4.1166C8.8817 4.35103 8.75 4.66897 8.75 5.00049V15.0005C8.75 15.332 8.8817 15.65 9.11612 15.8844C9.35054 16.1188 9.66848 16.2505 10 16.2505H25C25.3315 16.2505 25.6495 16.1188 25.8839 15.8844C26.1183 15.65 26.25 15.332 26.25 15.0005V5.00049C26.25 4.66897 26.1183 4.35103 25.8839 4.1166C25.6495 3.88218 25.3315 3.75049 25 3.75049ZM25 5.00049V6.87549H10V5.00049H25ZM25 15.0005H10V8.12549H25V15.0005ZM23.75 13.1255C23.75 13.2912 23.6842 13.4502 23.5669 13.5674C23.4497 13.6846 23.2908 13.7505 23.125 13.7505H20.625C20.4592 13.7505 20.3003 13.6846 20.1831 13.5674C20.0658 13.4502 20 13.2912 20 13.1255C20 12.9597 20.0658 12.8008 20.1831 12.6835C20.3003 12.5663 20.4592 12.5005 20.625 12.5005H23.125C23.2908 12.5005 23.4497 12.5663 23.5669 12.6835C23.6842 12.8008 23.75 12.9597 23.75 13.1255ZM18.75 13.1255C18.75 13.2912 18.6842 13.4502 18.5669 13.5674C18.4497 13.6846 18.2908 13.7505 18.125 13.7505H16.875C16.7092 13.7505 16.5503 13.6846 16.4331 13.5674C16.3158 13.4502 16.25 13.2912 16.25 13.1255C16.25 12.9597 16.3158 12.8008 16.4331 12.6835C16.5503 12.5663 16.7092 12.5005 16.875 12.5005H18.125C18.2908 12.5005 18.4497 12.5663 18.5669 12.6835C18.6842 12.8008 18.75 12.9597 18.75 13.1255Z" fill="#60646C"/>
</g>
<rect x="0.3125" y="0.312988" width="34.375" height="19.375" rx="3.4375" stroke="#DDDDE3" stroke-width="0.625"/>
<defs>
<clipPath id="clip0_1191_114">
<rect y="0.000488281" width="35" height="20" rx="3.75" fill="white"/>
</clipPath>
</defs>
</svg>
