<svg width="24" height="24" viewBox="0 0 24 24" fill="none" xmlns="http://www.w3.org/2000/svg">
<path d="M12 5.50012C10.7144 5.50012 9.45772 5.88134 8.3888 6.59557C7.31988 7.3098 6.48676 8.32496 5.99479 9.51268C5.50282 10.7004 5.37409 12.0073 5.6249 13.2682C5.8757 14.5291 6.49477 15.6873 7.40381 16.5963C8.31285 17.5054 9.47104 18.1244 10.7319 18.3752C11.9928 18.626 13.2997 18.4973 14.4874 18.0053C15.6752 17.5134 16.6903 16.6802 17.4046 15.6113C18.1188 14.5424 18.5 13.2857 18.5 12.0001C18.4982 10.2768 17.8128 8.62453 16.5942 7.40594C15.3756 6.18735 13.7234 5.50194 12 5.50012ZM11.75 8.50012C11.8983 8.50012 12.0433 8.54411 12.1667 8.62652C12.29 8.70893 12.3861 8.82606 12.4429 8.96311C12.4997 9.10015 12.5145 9.25095 12.4856 9.39644C12.4567 9.54193 12.3852 9.67556 12.2803 9.78045C12.1754 9.88534 12.0418 9.95677 11.8963 9.98571C11.7508 10.0146 11.6 9.9998 11.463 9.94303C11.3259 9.88627 11.2088 9.79014 11.1264 9.6668C11.044 9.54346 11 9.39846 11 9.25012C11 9.05121 11.079 8.86044 11.2197 8.71979C11.3603 8.57914 11.5511 8.50012 11.75 8.50012ZM12.5 15.5001C12.2348 15.5001 11.9804 15.3948 11.7929 15.2072C11.6054 15.0197 11.5 14.7653 11.5 14.5001V12.0001C11.3674 12.0001 11.2402 11.9474 11.1464 11.8537C11.0527 11.7599 11 11.6327 11 11.5001C11 11.3675 11.0527 11.2403 11.1464 11.1466C11.2402 11.0528 11.3674 11.0001 11.5 11.0001C11.7652 11.0001 12.0196 11.1055 12.2071 11.293C12.3946 11.4806 12.5 11.7349 12.5 12.0001V14.5001C12.6326 14.5001 12.7598 14.5528 12.8536 14.6466C12.9473 14.7403 13 14.8675 13 15.0001C13 15.1327 12.9473 15.2599 12.8536 15.3537C12.7598 15.4474 12.6326 15.5001 12.5 15.5001Z" fill="#7E808A"/>
</svg>