<svg width="28" height="16" viewBox="0 0 28 16" fill="none" xmlns="http://www.w3.org/2000/svg">
<path d="M0.25 4.00049C0.25 1.92942 1.92893 0.250488 4 0.250488H24C26.0711 0.250488 27.75 1.92942 27.75 4.00049V12.0005C27.75 14.0716 26.0711 15.7505 24 15.7505H4C1.92893 15.7505 0.25 14.0716 0.25 12.0005V4.00049Z" fill="white"/>
<path d="M0.25 4.00049C0.25 1.92942 1.92893 0.250488 4 0.250488H24C26.0711 0.250488 27.75 1.92942 27.75 4.00049V12.0005C27.75 14.0716 26.0711 15.7505 24 15.7505H4C1.92893 15.7505 0.25 14.0716 0.25 12.0005V4.00049Z" stroke="#DDDDE3" stroke-width="0.5"/>
<path d="M13.6796 10.7832V5.26182C15.2079 5.6531 16.1687 7.17475 15.7756 8.69639C15.5136 9.7398 14.7276 10.5224 13.6796 10.7832Z" fill="#0079BE"/>
<path d="M10.317 7.30517C9.92398 8.82682 10.841 10.3919 12.3694 10.7832V5.26182C11.365 5.52267 10.579 6.30523 10.317 7.30517Z" fill="#0079BE"/>
<path fill-rule="evenodd" clip-rule="evenodd" d="M12.8935 13.0005H14.6839C17.4787 13.0005 19.7058 10.7832 19.7931 8.04427V8.0008C19.7494 5.21836 17.4787 2.95763 14.6839 3.00111H12.6752C10.0114 3.08806 7.9153 5.34879 8.00263 8.04427C8.00263 10.7398 10.1861 12.957 12.8935 13.0005ZM8.87604 8.00078C8.87604 5.74005 10.7538 3.8706 13.0245 3.8706C15.2953 3.8706 17.173 5.74005 17.173 8.00078C17.173 10.2615 15.2953 12.131 13.0245 12.131C10.7538 12.131 8.87604 10.2615 8.87604 8.00078Z" fill="#0079BE"/>
</svg>