<svg width="20" height="20" viewBox="0 0 20 20" fill="none" xmlns="http://www.w3.org/2000/svg">
<path d="M10 1.87524C8.39303 1.87524 6.82214 2.35177 5.486 3.24455C4.14985 4.13734 3.10844 5.40629 2.49348 6.89094C1.87852 8.37559 1.71762 10.0093 2.03112 11.5854C2.34463 13.1614 3.11846 14.6092 4.25476 15.7455C5.39106 16.8818 6.8388 17.6556 8.4149 17.9691C9.99099 18.2826 11.6247 18.1217 13.1093 17.5068C14.594 16.8918 15.8629 15.8504 16.7557 14.5143C17.6485 13.1781 18.125 11.6072 18.125 10.0002C18.1227 7.84606 17.266 5.78075 15.7427 4.25751C14.2195 2.73427 12.1542 1.87752 10 1.87524ZM16.875 10.0002C16.8757 10.8823 16.7059 11.7561 16.375 12.5737L12.8828 10.426C12.7343 10.3344 12.5682 10.275 12.3953 10.2518L10.6125 10.0112C10.3668 9.97915 10.1172 10.0203 9.89483 10.1296C9.67247 10.2388 9.48729 10.4112 9.3625 10.6252H8.68125L8.38438 10.0112C8.30231 9.8402 8.18219 9.69026 8.03324 9.57286C7.88428 9.45545 7.71043 9.37369 7.525 9.33384L6.9 9.19868L7.51094 8.12524H8.81641C9.02766 8.12483 9.23538 8.07109 9.42032 7.96899L10.3773 7.44087C10.4614 7.394 10.54 7.33793 10.6117 7.27368L12.7141 5.37212C12.9248 5.18322 13.0649 4.92812 13.1112 4.64889C13.1575 4.36967 13.1073 4.083 12.9688 3.83618L12.9406 3.7854C14.117 4.34321 15.1111 5.22321 15.8075 6.32326C16.5039 7.4233 16.8741 8.69829 16.875 10.0002ZM3.125 10.0002C3.12396 8.97838 3.35194 7.96928 3.79219 7.04712L4.67813 9.41196C4.75196 9.60776 4.87376 9.7819 5.03237 9.91839C5.19098 10.0549 5.38132 10.1494 5.58594 10.1932L7.26016 10.5534L7.55782 11.1721C7.66112 11.3826 7.82121 11.5599 8.02001 11.6842C8.2188 11.8084 8.44839 11.8746 8.68282 11.8752H8.79844L8.2336 13.1432C8.13407 13.3665 8.1022 13.614 8.14191 13.8552C8.18162 14.0964 8.29118 14.3207 8.45704 14.5002L8.46797 14.5112L10 16.0893L9.84844 16.8706C8.05299 16.8288 6.34497 16.087 5.08885 14.8034C3.83273 13.5198 3.12798 11.7962 3.125 10.0002Z" fill="#7E808A"/>
</svg>