<svg width="35" height="20" viewBox="0 0 35 20" fill="none" xmlns="http://www.w3.org/2000/svg">
<rect y="0.000488281" width="35" height="20" rx="6" fill="#E4E4E9"/>
<path d="M10.8396 7.33782C10.4059 6.9156 9.82557 6.68368 9.22184 6.69557C8.11987 6.69557 7.18789 7.45081 6.85378 8.4677L6.85241 8.46662C6.67813 9.00045 6.67844 9.57541 6.85378 10.1031C7.18789 11.114 8.11987 11.8692 9.22184 11.8692C9.7904 11.8692 10.2767 11.7206 10.6577 11.4589C11.1032 11.1616 11.408 10.6858 11.5018 10.1566H9.22167V8.50932H13.2016C13.2485 8.79476 13.272 9.08615 13.272 9.37754C13.272 10.6858 12.8148 11.786 12.0176 12.5293C11.3201 13.1835 10.359 13.5641 9.22184 13.5641C7.6275 13.5641 6.16798 12.6542 5.45288 11.2092V11.2032C4.84904 9.99601 4.84904 8.56879 5.45287 7.36161C6.16798 5.91655 7.6275 5.00075 9.22184 5.00075C10.271 4.98885 11.2792 5.38729 12.0471 6.11279L10.8396 7.33782Z" fill="#8B8D98"/>
<path fill-rule="evenodd" clip-rule="evenodd" d="M16.53 13.0526V10.0317H18.0892C18.7281 10.0317 19.2674 9.81759 19.707 9.39537L19.8125 9.28833C20.6155 8.41416 20.5628 7.05235 19.707 6.24359C19.2791 5.81543 18.6929 5.58351 18.0892 5.5954H15.5863V13.0526H16.53ZM16.53 9.11583V6.51115H18.1129C18.4529 6.51115 18.7754 6.64198 19.0157 6.87985C19.5258 7.37938 19.5375 8.21192 19.045 8.72929C18.8047 8.985 18.4647 9.12772 18.1129 9.11583H16.53Z" fill="#8B8D98"/>
<path fill-rule="evenodd" clip-rule="evenodd" d="M24.2146 8.34871C23.8101 7.97407 23.2592 7.78377 22.5616 7.78377C21.6648 7.78377 20.9908 8.11679 20.5453 8.77688L21.3776 9.30614C21.6824 8.85419 22.0986 8.62821 22.6261 8.62821C22.9602 8.62821 23.2826 8.75309 23.5347 8.97907C23.7808 9.19315 23.9215 9.50238 23.9215 9.82945V10.0495C23.5581 9.84729 23.1009 9.74025 22.5382 9.74025C21.8817 9.74025 21.3542 9.89487 20.9614 10.21C20.5687 10.5252 20.3694 10.9415 20.3694 11.4708C20.3577 11.9524 20.5629 12.4103 20.9263 12.7196C21.2956 13.0526 21.7645 13.2191 22.3155 13.2191C22.9661 13.2191 23.4819 12.9277 23.8746 12.3449H23.9157V13.0526H24.8183V9.90676C24.8183 9.24667 24.619 8.72336 24.2146 8.34871ZM21.6533 12.113C21.4598 11.9703 21.3426 11.7384 21.3426 11.4886C21.3426 11.2091 21.4716 10.9772 21.7236 10.7928C21.9816 10.6085 22.304 10.5133 22.6851 10.5133C23.2127 10.5074 23.6231 10.6263 23.9162 10.8642C23.9162 11.2686 23.7579 11.6194 23.4472 11.9168C23.1658 12.2022 22.7847 12.3628 22.3861 12.3628C22.1223 12.3687 21.8643 12.2795 21.6533 12.113Z" fill="#8B8D98"/>
<path d="M30 7.95027L26.8465 15.2945H25.8735L27.0458 12.7255L24.9767 7.95027H26.0024L27.4971 11.6135H27.5147L28.9742 7.95027H30Z" fill="#8B8D98"/>
</svg>