<svg width="14" height="14" viewBox="0 0 14 14" fill="none" xmlns="http://www.w3.org/2000/svg">
<path d="M12.3594 4.81738C12.3375 4.7627 12.3145 4.70801 12.291 4.65332C11.9382 3.83959 11.3672 3.13929 10.6411 2.62988H11.8125C11.9285 2.62988 12.0398 2.58379 12.1219 2.50174C12.2039 2.41969 12.25 2.30841 12.25 2.19238C12.25 2.07635 12.2039 1.96507 12.1219 1.88302C12.0398 1.80098 11.9285 1.75488 11.8125 1.75488H6.125C4.91537 1.75642 3.75055 2.21281 2.86184 3.03343C1.97314 3.85406 1.42555 4.97889 1.32781 6.18457C0.949901 6.27851 0.614119 6.49582 0.373618 6.80209C0.133118 7.10836 0.00164146 7.4861 0 7.87551C0 7.99154 0.0460936 8.10282 0.128141 8.18487C0.210188 8.26691 0.321468 8.31301 0.4375 8.31301C0.553532 8.31301 0.664812 8.26691 0.746859 8.18487C0.828906 8.10282 0.875 7.99154 0.875 7.87551C0.875102 7.71597 0.91882 7.5595 1.00142 7.42301C1.08403 7.28652 1.20238 7.17522 1.34367 7.10113C1.45257 8.0827 1.86186 9.0067 2.51562 9.74691L3.2025 11.6697C3.26322 11.8398 3.37508 11.9869 3.52274 12.0909C3.67039 12.1949 3.8466 12.2506 4.02719 12.2505H4.72281C4.90331 12.2505 5.0794 12.1947 5.22694 12.0907C5.37448 11.9868 5.48626 11.8397 5.54695 11.6697L5.65195 11.3755H8.78555L8.89055 11.6697C8.95124 11.8397 9.06302 11.9868 9.21056 12.0907C9.3581 12.1947 9.53419 12.2505 9.71469 12.2505H10.4103C10.5908 12.2505 10.7669 12.1947 10.9144 12.0907C11.062 11.9868 11.1738 11.8397 11.2345 11.6697L12.1209 9.18801H12.25C12.5981 9.18801 12.9319 9.04973 13.1781 8.80359C13.4242 8.55744 13.5625 8.2236 13.5625 7.87551V6.12551C13.5625 5.79631 13.4389 5.47912 13.216 5.23682C12.9932 4.99452 12.6874 4.84482 12.3594 4.81738ZM8.3125 3.93801H6.125C6.00897 3.93801 5.89769 3.89191 5.81564 3.80987C5.73359 3.72782 5.6875 3.61654 5.6875 3.50051C5.6875 3.38448 5.73359 3.2732 5.81564 3.19115C5.89769 3.1091 6.00897 3.06301 6.125 3.06301H8.3125C8.42853 3.06301 8.53981 3.1091 8.62186 3.19115C8.70391 3.2732 8.75 3.38448 8.75 3.50051C8.75 3.61654 8.70391 3.72782 8.62186 3.80987C8.53981 3.89191 8.42853 3.93801 8.3125 3.93801ZM9.84375 7.00051C9.71396 7.00051 9.58708 6.96202 9.47916 6.88991C9.37124 6.8178 9.28712 6.71531 9.23745 6.59539C9.18778 6.47548 9.17479 6.34353 9.20011 6.21623C9.22543 6.08893 9.28793 5.972 9.37971 5.88022C9.47149 5.78844 9.58842 5.72594 9.71572 5.70062C9.84302 5.6753 9.97497 5.68829 10.0949 5.73796C10.2148 5.78763 10.3173 5.87175 10.3894 5.97966C10.4615 6.08758 10.5 6.21446 10.5 6.34426C10.5 6.51831 10.4309 6.68523 10.3078 6.8083C10.1847 6.93137 10.0178 7.00051 9.84375 7.00051Z" fill="#E9F9EE"/>
</svg>