<svg width="116" height="85" viewBox="0 0 116 85" fill="none" xmlns="http://www.w3.org/2000/svg">
<path d="M79.2119 53.7776L81.5947 53.3574L82.7328 58.0705L79.7544 58.5957L79.2119 53.7776Z" fill="black"/>
<rect x="53.2458" y="63.2698" width="56.8593" height="21.7759" rx="8.57143" transform="rotate(-10 53.2458 63.2698)" fill="black"/>
<path d="M75.9487 59.2668L81.2436 58.3332L78.8605 61.7365C78.1305 62.7791 76.5045 62.4186 76.2834 61.1652L75.9487 59.2668Z" fill="white"/>
<path d="M86.5383 57.3994L81.2435 58.333L84.6468 60.7161C85.6894 61.4461 87.0941 60.5512 86.8731 59.2978L86.5383 57.3994Z" fill="white"/>
<path d="M98.885 69.9386C99.0513 69.9093 99.2107 69.864 99.3609 69.8032C99.5149 69.7418 99.666 69.6716 99.8132 69.5942L100.013 70.7292C99.8625 70.831 99.6711 70.9268 99.4352 71.0172C99.2036 71.1095 98.9459 71.1814 98.6595 71.2319C98.327 71.2905 98.017 71.2897 97.7323 71.2304C97.4494 71.1668 97.2091 71.0152 97.0087 70.7761C96.8115 70.5325 96.6699 70.1708 96.5853 69.6909L96.1099 66.9946L95.4053 67.2614L95.2034 66.116L95.9095 65.8583L95.6983 64.6605L97.1739 64.1232L97.3854 65.3223L98.9006 64.7701L99.1025 65.9154L97.5873 66.4676L98.1081 69.4211C98.1458 69.6348 98.2341 69.7842 98.373 69.8692C98.5141 69.9512 98.6855 69.9738 98.885 69.9386Z" fill="white" stroke="white" stroke-width="0.714286" stroke-linejoin="round"/>
<ellipse cx="59.2419" cy="36.1083" rx="9.67818" ry="12.0977" transform="rotate(-10 59.2419 36.1083)" fill="black"/>
<path d="M95.5491 23.5641C93.5187 12.0493 83.7309 4.1504 73.6873 5.92135C63.6438 7.69229 57.1478 18.4625 59.1782 29.9773" stroke="black" stroke-width="2.85714"/>
<circle cx="76.7794" cy="33.0158" r="21.171" transform="rotate(-10 76.7794 33.0158)" fill="#08E8DE"/>
<ellipse cx="97.6289" cy="29.3398" rx="9.67818" ry="12.0977" transform="rotate(-10 97.6289 29.3398)" fill="black"/>
<path d="M82.1124 40.252C81.1901 38.361 78.9094 37.5757 77.0184 38.498C75.1274 39.4203 74.3421 41.7009 75.2644 43.592C76.1868 45.483 78.4674 46.2682 80.3584 45.3459C82.2494 44.4236 83.0347 42.143 82.1124 40.252ZM92.4408 34.4198L78.3753 41.28L79.0015 42.564L93.067 35.7038L92.4408 34.4198Z" fill="black"/>
<path d="M65.1514 25.4431C65.1514 25.4431 65.3737 36.3652 71.7072 35.2485C78.0406 34.1317 74.7894 23.7436 74.7894 23.7436" stroke="black" stroke-width="2.85714"/>
<circle cx="34.1829" cy="30.4987" r="9.24093" transform="rotate(37.6789 34.1829 30.4987)" fill="#FF7DF3"/>
<path d="M23.833 23.3127C23.5773 22.7826 24.0365 22.188 24.614 22.3015L29.0053 23.1641L25.7777 27.3434L23.833 23.3127Z" fill="#FF7DF3"/>
<path d="M1.73891 59.2049L12.3321 48.388L48.6296 45.2124C51.7735 44.9373 54.5451 47.263 54.8202 50.4069L56.343 67.8125C56.618 70.9564 54.2924 73.728 51.1485 74.003L9.0916 77.6825C5.9477 77.9576 3.17609 75.6319 2.90103 72.488L1.73891 59.2049Z" fill="#FFF000"/>
<path d="M10.6952 48.5312L11.0559 52.6536C11.3309 55.7976 9.00527 58.5692 5.86137 58.8442L1.73891 59.2049L10.6952 48.5312Z" fill="#FFAA1D"/>
<path d="M58.8893 53.6528C59.4367 53.8691 59.5021 54.6176 59.0006 54.9257L55.2121 57.2532L54.7542 52.0185L58.8893 53.6528Z" fill="#FFF000"/>
</svg>