<svg width="16" height="16" viewBox="0 0 16 16" fill="none" xmlns="http://www.w3.org/2000/svg">
<path d="M8 1.50049C6.71442 1.50049 5.45771 1.88171 4.38879 2.59594C3.31987 3.31016 2.48675 4.32533 1.99478 5.51305C1.50281 6.70077 1.37409 8.0077 1.62489 9.26858C1.8757 10.5295 2.49476 11.6876 3.40381 12.5967C4.31285 13.5057 5.47104 14.1248 6.73191 14.3756C7.99279 14.6264 9.29972 14.4977 10.4874 14.0057C11.6752 13.5137 12.6903 12.6806 13.4046 11.6117C14.1188 10.5428 14.5 9.28607 14.5 8.00049C14.4982 6.27714 13.8128 4.6249 12.5942 3.4063C11.3756 2.18771 9.72335 1.50231 8 1.50049ZM8 13.5005C6.9122 13.5005 5.84883 13.1779 4.94436 12.5736C4.03989 11.9692 3.33494 11.1102 2.91866 10.1052C2.50238 9.10025 2.39346 7.99439 2.60568 6.92749C2.8179 5.8606 3.34172 4.88059 4.11091 4.1114C4.8801 3.34221 5.86011 2.81839 6.927 2.60617C7.9939 2.39395 9.09976 2.50287 10.1048 2.91915C11.1098 3.33543 11.9687 4.04038 12.5731 4.94485C13.1774 5.84932 13.5 6.91269 13.5 8.00049C13.4983 9.45867 12.9184 10.8567 11.8873 11.8877C10.8562 12.9188 9.45818 13.4988 8 13.5005ZM9 11.0005C9 11.1331 8.94732 11.2603 8.85355 11.354C8.75978 11.4478 8.63261 11.5005 8.5 11.5005C8.23478 11.5005 7.98043 11.3951 7.79289 11.2076C7.60536 11.0201 7.5 10.7657 7.5 10.5005V8.00049C7.36739 8.00049 7.24021 7.94781 7.14645 7.85404C7.05268 7.76027 7 7.6331 7 7.50049C7 7.36788 7.05268 7.2407 7.14645 7.14693C7.24021 7.05317 7.36739 7.00049 7.5 7.00049C7.76522 7.00049 8.01957 7.10585 8.20711 7.29338C8.39464 7.48092 8.5 7.73527 8.5 8.00049V10.5005C8.63261 10.5005 8.75978 10.5532 8.85355 10.6469C8.94732 10.7407 9 10.8679 9 11.0005ZM7 5.25049C7 5.10215 7.04399 4.95715 7.1264 4.83381C7.20881 4.71047 7.32594 4.61434 7.46299 4.55758C7.60003 4.50081 7.75083 4.48596 7.89632 4.5149C8.0418 4.54384 8.17544 4.61527 8.28033 4.72016C8.38522 4.82505 8.45665 4.95868 8.48559 5.10417C8.51453 5.24966 8.49967 5.40046 8.44291 5.5375C8.38614 5.67455 8.29001 5.79168 8.16668 5.87409C8.04334 5.9565 7.89833 6.00049 7.75 6.00049C7.55109 6.00049 7.36032 5.92147 7.21967 5.78082C7.07902 5.64017 7 5.4494 7 5.25049Z" fill="#7E808A"/>
</svg>
