<svg width="28" height="16" viewBox="0 0 28 16" fill="none" xmlns="http://www.w3.org/2000/svg">
<path d="M0.25 4.00049C0.25 1.92942 1.92893 0.250488 4 0.250488H24C26.0711 0.250488 27.75 1.92942 27.75 4.00049V12.0005C27.75 14.0716 26.0711 15.7505 24 15.7505H4C1.92893 15.7505 0.25 14.0716 0.25 12.0005V4.00049Z" fill="white"/>
<path d="M0.25 4.00049C0.25 1.92942 1.92893 0.250488 4 0.250488H24C26.0711 0.250488 27.75 1.92942 27.75 4.00049V12.0005C27.75 14.0716 26.0711 15.7505 24 15.7505H4C1.92893 15.7505 0.25 14.0716 0.25 12.0005V4.00049Z" stroke="#DDDDE3" stroke-width="0.5"/>
<path d="M14.0083 11.4255C13.213 12.0958 12.1814 12.5005 11.0542 12.5005C8.53898 12.5005 6.5 10.4858 6.5 8.00049C6.5 5.51521 8.53898 3.50049 11.0542 3.50049C12.1814 3.50049 13.213 3.90516 14.0083 4.5755C14.8035 3.90516 15.8351 3.50049 16.9624 3.50049C19.4776 3.50049 21.5166 5.51521 21.5166 8.00049C21.5166 10.4858 19.4776 12.5005 16.9624 12.5005C15.8351 12.5005 14.8035 12.0958 14.0083 11.4255Z" fill="#ED0006"/>
<path d="M14.0083 11.4255C14.9875 10.6001 15.6084 9.37193 15.6084 8.00049C15.6084 6.62905 14.9875 5.4009 14.0083 4.57551C14.8036 3.90517 15.8352 3.50049 16.9624 3.50049C19.4776 3.50049 21.5166 5.51521 21.5166 8.00049C21.5166 10.4858 19.4776 12.5005 16.9624 12.5005C15.8352 12.5005 14.8036 12.0958 14.0083 11.4255Z" fill="#F9A000"/>
<path d="M14.0083 11.4255C14.9875 10.6001 15.6084 9.37194 15.6084 8.00049C15.6084 6.62904 14.9875 5.40088 14.0083 4.5755C13.0291 5.40088 12.4082 6.62904 12.4082 8.00049C12.4082 9.37194 13.0291 10.6001 14.0083 11.4255Z" fill="#FF5E00"/>
</svg>
