<svg width="18" height="18" viewBox="0 0 18 18" fill="none" xmlns="http://www.w3.org/2000/svg">
<path d="M14.6595 13.466C14.818 13.6245 14.907 13.8395 14.907 14.0636C14.907 14.2878 14.818 14.5028 14.6595 14.6613C14.5009 14.8198 14.286 14.9088 14.0618 14.9088C13.8376 14.9088 13.6226 14.8198 13.4641 14.6613L9 10.1957L4.53445 14.6599C4.37594 14.8184 4.16096 14.9074 3.9368 14.9074C3.71263 14.9074 3.49765 14.8184 3.33914 14.6599C3.18063 14.5014 3.09158 14.2864 3.09158 14.0622C3.09158 13.8381 3.18063 13.6231 3.33914 13.4646L7.80469 9.00043L3.34055 4.53488C3.18204 4.37637 3.09299 4.16139 3.09299 3.93723C3.09299 3.71306 3.18204 3.49808 3.34055 3.33957C3.49905 3.18106 3.71404 3.09201 3.9382 3.09201C4.16237 3.09201 4.37735 3.18106 4.53586 3.33957L9 7.80512L13.4655 3.33887C13.6241 3.18036 13.839 3.09131 14.0632 3.09131C14.2874 3.09131 14.5023 3.18036 14.6609 3.33887C14.8194 3.49737 14.9084 3.71236 14.9084 3.93652C14.9084 4.16069 14.8194 4.37567 14.6609 4.53418L10.1953 9.00043L14.6595 13.466Z" fill="#60646C"/>
</svg>