<svg width="18" height="18" viewBox="0 0 18 18" fill="none" xmlns="http://www.w3.org/2000/svg">
<path d="M16.0312 9.00049C16.0312 9.22426 15.9424 9.43888 15.7841 9.59711C15.6259 9.75534 15.4113 9.84424 15.1875 9.84424H9.84375V15.188C9.84375 15.4118 9.75485 15.6264 9.59662 15.7846C9.43839 15.9428 9.22378 16.0317 9 16.0317C8.77622 16.0317 8.56161 15.9428 8.40338 15.7846C8.24514 15.6264 8.15625 15.4118 8.15625 15.188V9.84424H2.8125C2.58872 9.84424 2.37411 9.75534 2.21588 9.59711C2.05764 9.43888 1.96875 9.22426 1.96875 9.00049C1.96875 8.77671 2.05764 8.5621 2.21588 8.40387C2.37411 8.24563 2.58872 8.15674 2.8125 8.15674H8.15625V2.81299C8.15625 2.58921 8.24514 2.3746 8.40338 2.21637C8.56161 2.05813 8.77622 1.96924 9 1.96924C9.22378 1.96924 9.43839 2.05813 9.59662 2.21637C9.75485 2.3746 9.84375 2.58921 9.84375 2.81299V8.15674H15.1875C15.4113 8.15674 15.6259 8.24563 15.7841 8.40387C15.9424 8.5621 16.0312 8.77671 16.0312 9.00049Z" fill="#60646C"/>
</svg>