<svg width="28" height="16" viewBox="0 0 28 16" fill="none" xmlns="http://www.w3.org/2000/svg">
<path d="M0.25 4.00049C0.25 1.92942 1.92893 0.250488 4 0.250488H24C26.0711 0.250488 27.75 1.92942 27.75 4.00049V12.0005C27.75 14.0716 26.0711 15.7505 24 15.7505H4C1.92893 15.7505 0.25 14.0716 0.25 12.0005V4.00049Z" fill="white"/>
<path d="M0.25 4.00049C0.25 1.92942 1.92893 0.250488 4 0.250488H24C26.0711 0.250488 27.75 1.92942 27.75 4.00049V12.0005C27.75 14.0716 26.0711 15.7505 24 15.7505H4C1.92893 15.7505 0.25 14.0716 0.25 12.0005V4.00049Z" stroke="#DDDDE3" stroke-width="0.5"/>
<path d="M17.241 4.50049C17.8991 4.50049 18.4313 4.65187 18.7668 4.78898L18.5355 6.25221L18.3816 6.18026C18.0738 6.04325 17.6675 5.90633 17.1144 5.9208C16.4428 5.9208 16.1416 6.21619 16.1346 6.50458C16.1346 6.82181 16.499 7.03087 17.094 7.34092C18.0741 7.82391 18.5287 8.41497 18.5219 9.18635C18.5081 10.5921 17.3461 11.5005 15.5611 11.5005C14.7979 11.4932 14.0628 11.3271 13.6638 11.1399L13.9019 9.61875L14.1259 9.72701C14.6789 9.97957 15.0428 10.0875 15.722 10.0875C16.2118 10.0875 16.7369 9.8782 16.7436 9.42425C16.7436 9.12867 16.5199 8.91223 15.8617 8.58063C15.2178 8.25611 14.3569 7.71554 14.3708 6.74229C14.3781 5.42315 15.5611 4.50049 17.241 4.50049Z" fill="#00579F"/>
<path d="M10.8989 11.3995H12.6L13.6639 4.62332H11.9629L10.8989 11.3995Z" fill="#00579F"/>
<path fill-rule="evenodd" clip-rule="evenodd" d="M23.1276 4.62332H21.8118C21.406 4.62332 21.0977 4.74577 20.9227 5.18554L18.3958 11.3994H20.1808C20.1808 11.3994 20.4746 10.5631 20.5378 10.3829H22.7219C22.7708 10.6208 22.9249 11.3994 22.9249 11.3994H24.5L23.1276 4.62332ZM21.0278 8.99894C21.1679 8.60966 21.7069 7.10302 21.7069 7.10302C21.7041 7.10886 21.7264 7.04531 21.7594 6.95085C21.8083 6.81143 21.8807 6.60465 21.9308 6.45428L22.0497 7.03816C22.0497 7.03816 22.3718 8.66015 22.4417 8.99894H21.0278Z" fill="#00579F"/>
<path d="M7.81199 9.24403L9.47797 4.62332H11.2768L8.60288 11.3923H6.80397L5.27798 5.46656C6.35596 6.05072 7.32193 7.22557 7.62994 8.3069L7.81199 9.24403Z" fill="#00579F"/>
<path d="M6.26498 4.62332H3.528L3.5 4.76024C5.63502 5.32256 7.049 6.678 7.62994 8.30718L7.03495 5.19292C6.93699 4.76014 6.63596 4.6376 6.26498 4.62332Z" fill="#FAA61A"/>
</svg>
